<?xml version="1.0" encoding="utf-8"?>
<svg xmlns="http://www.w3.org/2000/svg" class="store-logo beatport" viewBox="0 0 330.1 96.6">
  <defs>
    <style>.b{fill:#fff;}</style>
  </defs>
  <path class="b" d="M67.9,60c0,13.6-10.8,24.6-24.6,24.6s-24.4-10.7-24.4-24.6c0-6.5,2.5-12.3,6.4-16.6L8.7,60,0,51.2l18.7-18.5c2.5-2.5,3.8-5.8,3.8-9.5V0h12.3V23.3c0,7.1-2.5,13.2-7.5,18.1l-.5,.5c4.3-4,10.2-6.4,16.5-6.4,14,0,24.6,11.1,24.6,24.5m-11.1,0c0-7.3-6-13.2-13.4-13.2s-13.4,6.2-13.4,13.2,5.9,13.3,13.3,13.3,13.5-6.3,13.5-13.3"/>
  <path class="b" d="M108.2,36.1c5.2,0,9.1,1.1,12,3.2,2.8,2.2,4.3,5.2,4.3,9,0,2.8-.8,5.1-2.3,7-1.5,1.8-3.7,3-6.5,3.7,7,1.2,10.6,4.9,10.6,11.1,0,4.1-1.5,7.3-4.5,9.6-3,2.3-7.3,3.5-12.9,3.5h-17.9V36.2h17.2v-.1Zm-9.5,19.9h9.7c2.6,0,4.7-.6,6.1-1.8,1.5-1.2,2.2-2.9,2.2-5s-.7-3.8-2.2-4.9c-1.5-1.2-3.5-1.8-6.1-1.8h-9.7v13.5Zm0,20.6h10.2c3,0,5.4-.6,7-1.8,1.6-1.2,2.5-2.9,2.5-5.1s-.8-4.1-2.5-5.3c-1.7-1.3-4-1.9-7-1.9h-10.2v14.1Z"/>
  <path class="b" d="M129.9,56.7c1.4-2.7,3.4-4.7,5.9-6.2s5.4-2.2,8.7-2.2,6.2,.7,8.8,2c2.5,1.3,4.5,3.2,6,5.7s2.2,5.4,2.3,8.7c0,.9-.1,1.8-.2,2.8h-25.9v.4c.2,3,1.1,5.4,2.8,7.1s4,2.6,6.8,2.6c2.2,0,4.1-.5,5.6-1.6s2.5-2.5,3-4.5h7.3c-.6,3.5-2.3,6.4-5.1,8.6s-6.2,3.4-10.3,3.4c-3.6,0-6.7-.7-9.4-2.2s-4.7-3.5-6.2-6.1-2.2-5.7-2.2-9.2c0-3.5,.7-6.6,2.1-9.3m24.2,5.5c-.3-2.5-1.3-4.5-3-5.9s-3.8-2.1-6.4-2.1c-2.4,0-4.4,.7-6.1,2.2-1.7,1.5-2.7,3.4-3,5.8h18.5Z"/>
  <path class="b" d="M196.7,76.8v6.3h-3.8c-2.2,0-3.9-.5-4.8-1.4-1-.9-1.5-2.3-1.5-4.1-2.6,3.9-6.4,5.9-11.4,5.9-3.9,0-6.9-.9-9.3-2.7-2.3-1.8-3.5-4.3-3.5-7.4,0-3.5,1.3-6.3,3.8-8.2,2.5-1.9,6.2-2.9,11-2.9h8.7v-2.1c0-1.9-.7-3.4-2-4.5s-3.2-1.6-5.6-1.6c-2.1,0-3.8,.5-5.2,1.4s-2.2,2.1-2.5,3.7h-7.1c.4-3.4,1.9-6.1,4.6-8,2.7-1.9,6.2-2.9,10.6-2.9s8.2,1.1,10.7,3.2c2.5,2.2,3.8,5.2,3.8,9.3v13.6c0,1.6,.8,2.4,2.3,2.4h1.2Zm-10.9-9h-9c-2.2,0-4,.4-5.2,1.3s-1.8,2.2-1.8,3.9c0,1.5,.6,2.7,1.7,3.6,1.1,.9,2.7,1.3,4.7,1.3,3,0,5.3-.8,7-2.4s2.5-3.8,2.6-6.5v-1.2Z"/>
  <path class="b" d="M199.5,55.1h-6v-6.4h6v-9.6h7.3v9.6h8.3v6.4h-8.3v17.9c0,1.3,.3,2.3,.8,2.9s1.5,.8,2.8,.8h5.5v6.4h-7c-3.3,0-5.7-.8-7.2-2.3s-2.3-3.9-2.3-7.1v-18.6h.1Z"/>
  <path class="b" d="M244.7,50.4c2.5,1.4,4.4,3.5,5.8,6.1,1.4,2.7,2.1,5.8,2.1,9.4s-.7,6.6-2.1,9.2c-1.4,2.7-3.3,4.7-5.8,6.2s-5.3,2.2-8.4,2.2c-2.6,0-4.8-.5-6.7-1.4s-3.4-2.2-4.5-3.8v18.3h-7.3V48.7h6.3l.9,5.1c2.8-3.7,6.5-5.5,11.2-5.5,3.2,0,6,.7,8.5,2.1m-2.4,23.8c1.9-2.2,2.8-4.9,2.8-8.3s-.9-6.2-2.8-8.3c-1.9-2.1-4.3-3.2-7.3-3.2s-5.4,1-7.3,3.1c-1.8,2.1-2.8,4.8-2.8,8.2s.9,6.2,2.8,8.4c1.8,2.2,4.3,3.2,7.3,3.2,3.1,.1,5.5-1,7.3-3.1"/>
  <path class="b" d="M263.1,81.3c-2.7-1.5-4.7-3.5-6.2-6.2s-2.2-5.7-2.2-9.2,.7-6.5,2.2-9.2,3.5-4.7,6.2-6.2,5.7-2.2,9.2-2.2,6.5,.7,9.2,2.2,4.7,3.6,6.2,6.2c1.5,2.7,2.2,5.7,2.2,9.2s-.7,6.6-2.2,9.2c-1.5,2.7-3.5,4.7-6.2,6.2s-5.7,2.2-9.2,2.2-6.5-.7-9.2-2.2m16.5-7.1c1.9-2.1,2.8-4.9,2.8-8.2s-.9-6.1-2.8-8.2c-1.9-2.1-4.3-3.2-7.4-3.2s-5.5,1.1-7.3,3.2c-1.8,2.1-2.8,4.9-2.8,8.2s.9,6.1,2.8,8.2c1.8,2.1,4.3,3.2,7.3,3.2,3.1-.1,5.6-1.1,7.4-3.2"/>
  <path class="b" d="M311.3,48.7v6.8h-3.2c-3,0-5.2,1-6.5,2.9s-2,4.4-2,7.4v17.3h-7.3V48.7h6.5l.8,5.2c1-1.6,2.3-2.9,3.8-3.8,1.6-.9,3.7-1.4,6.3-1.4h1.6Z"/>
  <path class="b" d="M313.7,39.1h7.3v9.6h8.3v6.4h-8.3v17.9c0,1.3,.3,2.3,.8,2.9s1.5,.8,2.8,.8h5.5v6.4h-7c-3.3,0-5.6-.8-7.1-2.3s-2.2-3.9-2.2-7.1V39.1h-.1Z"/>
</svg>