<?xml version="1.0" encoding="utf-8"?>
<svg xmlns="http://www.w3.org/2000/svg" class="store-logo amazon" viewBox="0 0 4163.29 813.89">
  <defs>
    <style>.cls-1{fill:#fff;}</style>
  </defs>
  <path class="cls-1" d="M-757,649.93c.6,15.32,4,19,18.85,19.45,9.32.27,18.66.08,28,.07,10.66,0,21.34.32,32-.2,9.85-.47,14.33-5.16,15.17-15.06.45-5.29.19-10.65.19-16,0-57.32-.07-114.64.06-172,0-13.33.42-26.66,1.24-40a78.94,78.94,0,0,1,8.77-32.57c4.9-9.21,12.12-15.7,22.27-18.83,24.86-7.68,45.54,3.73,52.19,29,3.42,13,3.93,26.29,3.91,39.67q-.14,98-.07,195.94c0,4.67-.18,9.34.09,14,.65,11.18,4.69,15.56,16.22,15.77q31,.57,62-.06c10.31-.21,14.41-4.69,15.08-14.71.36-5.31.15-10.66.15-16q0-87,0-173.95c0-16,.61-32,3-47.84,1.31-8.7,4-16.86,9.06-24.09,11.1-15.84,30.39-22.57,49.51-17.38,15.76,4.27,24.18,15.56,26,36.17,1,11.27,1.17,22.63,1.18,33.95q.09,99-.09,197.94c0,2.67-.1,5.34.06,8,.83,13.71,4.63,17.78,18.34,18,18.66.33,37.33.29,56,0,15.15-.22,19-4.16,19.69-18.69.1-2,0-4,0-6q.26-124,.51-247.92a203.3,203.3,0,0,0-4.09-41.71,83.61,83.61,0,0,0-24.78-44.72c-43-41-117.67-32.61-150.89,17.09-3.31,5-6.21,10.19-11,18.09-5.49-8.75-9.73-15.4-13.87-22.1-33.32-54-117-49.83-148.95-3.31-3.58,5.21-5.15,12.34-12.1,14.91-7.55-5.48-2.24-13.44-3.81-20.08-.45-1.89,0-4-.14-6-.87-12.4-4.82-16.59-17.38-16.92-14.65-.39-29.32-.16-44-.13C-755.69,292-757,293.22-757,320q0,161,0,321.91C-757,644.6-757.09,647.27-757,649.93Z" transform="translate(1131.71 -136.72)"/>
  <path class="cls-1" d="M1786.57,347.27c-11-34.92-34.68-56-70.39-63.47-15.76-3.31-31.71-3.6-47.73-2-35.8,3.62-68.63,15.82-99.41,34-5.73,3.39-11.23,7.16-17,10.54-8,4.72-9.74,4.37-15-2.36-.81-1.05-1.52-2.19-2.27-3.29-15.22-22.28-36.69-34.07-63.06-38-32.53-4.85-63.66.85-94.13,11.93-17,6.18-32.8,14.65-48.35,23.77-16.08,9.44-16.18,9.29-20.68-7.87-.5-1.93-.86-3.9-1.41-5.82-2.3-8.08-7.9-12.1-16.1-12.45-6.65-.27-13.32-.24-20-.22-26.32.08-28.17,1.9-28.19,28.55q-.08,80,0,159.9h0q0,79.95,0,159.9a135.29,135.29,0,0,0,1,17.9c.81,5.9,4.94,10.13,10.66,10.31q24.95.8,49.92,0c6.58-.2,10.89-5,11.7-11.7a151.31,151.31,0,0,0,.62-18q0-119.94,0-239.86c0-5.33.16-10.66,0-16-.19-6.65,2.45-11.13,8.43-14.5,31.41-17.65,64.74-28,101.05-27,28.56.76,44.07,13.53,51.23,41.19,3.21,12.43,3.2,25.07,3.21,37.72q.09,108.93.06,217.87c0,6-.28,12,.44,18,.79,6.5,4.79,11.83,11.42,12.09,16.61.67,33.27.65,49.89.14,6.64-.21,10.93-5.14,11.85-11.68.83-5.89.66-12,.66-17.93q.06-120.93,0-241.85c0-4.67.09-9.33,0-14-.16-5.85,2.07-10.27,7.24-13.18,32.5-18.32,66.86-30,104.7-28.2,26.1,1.22,41.75,14.53,48.39,39.72,3.27,12.4,3.66,25,3.67,37.67q0,108.93,0,217.87c0,5.33-.21,10.68.14,16,.74,11.18,4.93,15.62,16.12,16.07,12,.49,24-.21,36,.28,15.63.63,22-4.46,21.75-20.95-.07-4,0-8,0-12q0-37,0-74,0-81.94,0-163.9C1793.09,381.23,1791.86,364,1786.57,347.27Z" transform="translate(1131.71 -136.72)"/>
  <path class="cls-1" d="M-817,594c-12.05-16.87-18.44-35.08-18-55.95.48-22.65.11-45.31.11-68h0c0-20,.27-40-.11-60-.22-12-1.09-23.95-2.31-35.86-4-38.9-25.3-64.9-60.71-80a165.55,165.55,0,0,0-48.31-12.11c-33-3.35-65.29-.34-96.36,11.59-37,14.21-62.68,39.63-74.24,78.15a78.7,78.7,0,0,0-3.07,15.64c-.6,6.62,3.19,12.23,9.78,13.11,21.13,2.81,42.33,5.1,63.54,7.24,5.79.58,10.28-2.56,12.81-7.84a66.7,66.7,0,0,0,3.4-9.37c9.41-31,40.75-39.61,63.82-35.05,17.93,3.54,29.59,14.26,33.39,32.81,2,9.89,2.33,19.84,2.14,29.83-.2,10.55-.84,11.54-10.82,12.9-19.15,2.6-38.38,4.51-57.5,7.28-23.82,3.45-47.19,8.76-68.7,20.15-30.45,16.12-51.19,40.3-59.32,74.06a144.53,144.53,0,0,0,.09,69.36c9,36,31.69,59.23,68,68.54,20.43,5.23,41,4.15,61.54,1.32,19.55-2.71,37.11-10.57,52.64-22.7,7.34-5.74,14.16-12.13,21.3-18.11,5-4.14,7.57-4,11.4,1.38,8.16,11.4,16.38,22.72,27.14,31.88s16.92,9.48,28,.13c12.23-10.3,24.09-21,36.11-31.59C-801.89,615.89-801.59,615.68-817,594Zm-117.29-47.1c-3.3,16-10.06,30.26-21.71,42a50.4,50.4,0,0,1-29.78,15c-17.84,2.4-33-6-40.7-22.35-15.29-32.56-.73-71.34,32.37-85.37,17.42-7.39,35.9-9.85,54.72-9.77,6,0,8,2.24,8.27,8.71.24,5.33,0,10.67,0,16A146.14,146.14,0,0,1-934.33,546.93Z" transform="translate(1131.71 -136.72)"/>
  <path class="cls-1" d="M-148.3,673.63a250.94,250.94,0,0,0,28,0C-95,672.39-72,664.44-52,648.71c6.81-5.34,13.13-11.29,19.71-16.92,6.1-5.23,8-5.08,12.84,1.26,3.64,4.76,7,9.77,10.63,14.51A102.3,102.3,0,0,0,11,667.32c7.15,5.34,12.9,5.42,20.17.4a108.26,108.26,0,0,0,9.19-7.7c10.54-9.2,21-18.46,31.61-27.64C90.48,616.24,91,615.26,76.15,595c-13.21-18-19.27-37.62-18.86-59.76s.09-44,.09-66h-.05c0-20.66.22-41.32-.09-62-.16-10.64-1-21.29-2-31.88-3.93-40.66-26-68-63.58-82-51-19.05-102.18-17.14-151.89,4.87C-192.3,312.45-213.94,337-224.11,371a86.06,86.06,0,0,0-3.32,15.59c-.8,7.7,3,13.27,10.72,14.31,20.47,2.76,41,4.93,61.56,7,6.66.69,11.57-2.5,14.18-8.78a57.93,57.93,0,0,0,2.69-7.51c7.29-27.49,34.58-39.94,61.18-36.5C-59,357.48-44,368.58-40.74,389.51a125.06,125.06,0,0,1,1.93,17.84c.22,25.12,2.84,22.3-21.49,25.26-23.15,2.82-46.38,4.94-69.2,10-16.33,3.61-32.26,8.4-47,16.46-31.57,17.27-52.21,43-59.69,78.48a140.16,140.16,0,0,0,1,63.41C-224.56,643.77-192.36,670.82-148.3,673.63Zm12.18-141.2a51.88,51.88,0,0,1,23.81-30.69c20.69-12.23,43.52-15.27,67-15.21a6.1,6.1,0,0,1,6.45,6.17c.25,5.95.07,11.92.07,15.34a162.24,162.24,0,0,1-2.86,38.14A83.76,83.76,0,0,1-58.74,583.8c-7.7,9.5-17.17,16.37-29.4,19.14-23.13,5.24-43-6.2-48.79-29.21A77,77,0,0,1-136.12,532.43Z" transform="translate(1131.71 -136.72)"/>
  <path class="cls-1" d="M1068.72,523.51c0-32.65-.07-65.29,0-97.93a347.56,347.56,0,0,0-3.24-51.81c-1.46-9.84-3.27-19.8-6.47-29.18-10.51-30.75-31.9-50-63.63-57.5a111.89,111.89,0,0,0-31.76-2.63c-30.07,1.57-53.47,14.8-69.91,40.08-2.9,4.46-5.32,9.24-8.17,13.74-1.29,2-2.28,5.1-5.91,3.54-2.27-1-2.22-3.12-2.25-4.94-.2-9.32,0-18.65-.32-28-.43-12.59-4.17-16.58-17-16.87-18-.39-36-.12-54-.09a36,36,0,0,0-6,.39c-6.52,1.13-10.8,5.35-11.43,12-.5,5.29-.3,10.65-.3,16q0,159.88,0,319.77c0,4-.14,8,.06,12,.63,12.58,4.54,17,16.94,17.23q30,.59,60,0c12.09-.24,16.25-4.92,17-17.38.27-4.65.08-9.33.08-14q0-84.95,0-169.88A256.56,256.56,0,0,1,885,428.22a102.85,102.85,0,0,1,9.38-30.42,47.3,47.3,0,0,1,22.2-22.18c14.75-7.08,40.1-5.23,50.35,18.44a72.51,72.51,0,0,1,6.27,25.06c.6,11.3,1.23,22.62,1.25,33.94q.18,92.93.07,185.86c0,5.33-.24,10.69.22,16,.78,9.08,5,14,13.6,14.21q33,.69,65.94,0c8.84-.17,13.27-5,14.16-13.75a138.55,138.55,0,0,0,.26-14Q1068.74,582.47,1068.72,523.51Z" transform="translate(1131.71 -136.72)"/>
  <path class="cls-1" d="M222.73,772.3c-5.19.55-10.34,2.4-15.27,4.26-15,5.65-29.69,11.87-44.69,17.38-91.1,33.46-184.83,55.54-281.49,65.2a1128,1128,0,0,1-171.63,3.7A1124.41,1124.41,0,0,1-499.6,832.11c-103.41-25.36-202.07-63-294.55-116.19a113.76,113.76,0,0,0-14.31-7.06c-4.66-1.88-10.09-.1-12.44,3.62-2.81,4.46-2.32,9.1.83,13a80.54,80.54,0,0,0,9.8,9.92C-648.11,877.21-459,948.15-266.28,950.6c141.17-.28,255.29-23.4,364.63-69.76,42.4-18,83-39.56,120.72-66.08a135.87,135.87,0,0,0,17.16-13.66c5-4.9,7.05-11.28,4.21-18.33A17.25,17.25,0,0,0,222.73,772.3Z" transform="translate(1131.71 -136.72)"/>
  <path class="cls-1" d="M705.13,352.58c-54.37-91-193-93-246.86,3.61a231.51,231.51,0,0,0-13.56,28.88c-11.72,30.19-16,61.77-16.19,94a264.29,264.29,0,0,0,4.26,51.72c4.86,27.79,13.73,54.08,28.38,78.44C513.72,696.65,635.81,697.57,694,623a195.6,195.6,0,0,0,35.62-73.08c11-43.41,10.89-87,1.5-130.65A217.91,217.91,0,0,0,705.13,352.58ZM633.85,538.49c-2.06,15.3-5.81,30.07-14,43.32-8.74,14.09-21.28,21.4-38.16,21.22-13-.14-23.1-5.4-30.81-15.59-6.52-8.62-10.37-18.53-13.23-28.84-4.66-16.76-6.55-34-7.37-51.25-.51-10.62-.1-21.28-.1-31.92-.62-20-.43-39.91,2.93-59.69,2-11.89,5-23.45,10.72-34.1,13-24.07,32.79-27.69,54-22.4,12.42,3.09,20.55,11.82,25.7,23.32s8.07,24,9.65,36.53C638.13,458.84,639.24,498.66,633.85,538.49Z" transform="translate(1131.71 -136.72)"/>
  <path class="cls-1" d="M2201.72,481.84q0-79.92,0-159.84c0-5.33.18-10.69-.32-16-.74-7.68-5.07-13-12.43-13.33-15.95-.61-31.95-.52-47.9,0-7,.22-11.07,4.39-12,11.28a150.25,150.25,0,0,0-.93,19.92q-.08,117.89,0,235.77c0,5.33-.13,10.66,0,16,.1,5.79-2,10.41-7,13.46-33.71,20.61-69.62,33.34-109.82,30.07-26.53-2.16-42.65-16-49.47-41.84-3.28-12.35-4-24.91-4-37.62q.14-105.9,0-211.8c0-4.66.09-9.32,0-14-.47-17.53-4.06-21.32-21-21.77-8.66-.23-17.32-.12-26-.06-23.89.18-26.89,2.88-26.92,26q-.14,123.89.13,247.76a194.11,194.11,0,0,0,3.17,33.76c8,44,37.35,71.93,81.58,78.8a170.73,170.73,0,0,0,43.79.93c36.57-3.72,69.65-16.81,100.58-36.17,5.5-3.44,10.61-10.62,17.11-8.76,7.34,2.11,4.31,11.43,6.81,17.24.78,1.8.88,3.89,1.44,5.8,2.12,7.22,7,11.27,14.48,11.58,8,.32,16,0,24,.33,22.33,1,25-5.55,24.85-25.69C2201.46,589.74,2201.72,535.79,2201.72,481.84Z" transform="translate(1131.71 -136.72)"/>
  <path class="cls-1" d="M383.3,572.84a188.54,188.54,0,0,0-34.73-15.15c-23.59-7.89-47.95-11.36-72.68-12.11-13.38-.41-16.13-4-8.35-14.89,2.72-3.79,5.3-7.67,8-11.5,33.43-48.14,66.67-96.42,100.42-144.34,9.56-13.59,15.67-27.59,13.83-44.54a103.68,103.68,0,0,1,0-18c1-15.72-4.82-22.29-20.89-21.49-4,.2-8,0-12,0H264.91q-48,0-95.93,0c-4.66,0-9.34-.18-14,.17-10.41.81-14.39,4.68-15.37,14.67-.26,2.64-.14,5.32-.15,8,0,10-.09,20,0,30,.23,21.1,2.75,23.48,24.68,23.7,3.33,0,6.66,0,10,0q35,0,69.94,0c4.66,0,9.33,0,14,.31,5.05.35,7.25,4,4.76,8-3.49,5.66-7.27,11.15-11.05,16.63-37.08,53.72-74,107.53-111.38,161-9.13,13.09-13.92,27-13.75,42.91.15,14.65-.1,29.31.11,44A38.07,38.07,0,0,0,128.65,652c2.16,6.19,8.35,9,14.52,6.81,4.37-1.55,8.51-3.77,12.75-5.7,48.14-21.9,98.3-27.73,150.31-18.91a251.13,251.13,0,0,1,70,23.06c9.12,4.53,19.15,1.69,19.65-11.24.7-17.94.31-35.94-.12-53.9C395.5,583.51,390.79,577.16,383.3,572.84Z" transform="translate(1131.71 -136.72)"/>
  <path class="cls-1" d="M2503.66,487.38c-14.15-10.28-29.63-17.84-45.76-24.24-22.9-9.08-45.86-18-68.76-27.08a131.76,131.76,0,0,1-28.16-15c-10.41-7.39-15.87-17.63-16.76-30.4-1.5-21.58,8.38-37.28,28.7-45.2,12-4.67,24.54-6,37.23-6.2a269.83,269.83,0,0,1,73.12,9.11c6.43,1.71,12.82,3.63,19.32,5,11.72,2.51,16.75-1,17.44-12.3.45-7.3.15-14.64,0-22-.15-9.75-5.05-16.25-14-19.88-2.46-1-4.93-2-7.44-2.92a255.79,255.79,0,0,0-100.08-15.07c-25.56,1.26-50.13,6.85-72.35,20.32-25,15.17-43.15,35.84-48.51,65.27-8.16,44.82,5.13,85.49,49.84,112.41,12.61,7.59,26.22,13,39.92,18.22q32.66,12.42,65.21,25.12a97.41,97.41,0,0,1,24.3,13.66c8.94,6.87,13.65,16,14.83,27.24,2.63,24.88-10.71,45.34-35.57,53.44-16,5.22-32.65,6.28-49.39,5.2-28-1.81-55.66-5.33-82.53-13.8a198.35,198.35,0,0,0-19.24-5.27c-7.13-1.46-12.24,1.85-13.22,8.6a120.78,120.78,0,0,0-.06,31.84,16.7,16.7,0,0,0,8.77,12.72,110.71,110.71,0,0,0,14.49,6.59c31.43,12.27,64.29,16.7,98.9,17.69,26.38-.09,53.37-3,78.93-14.14,46.59-20.33,70.63-58.85,67.86-109.26C2539.17,528.24,2527.44,504.67,2503.66,487.38Z" transform="translate(1131.71 -136.72)"/>
  <path class="cls-1" d="M3031.24,615.54c-.49-8.16-5.54-12-13.46-10.8-5.9.92-11.69,2.57-17.49,4.06a221.84,221.84,0,0,1-73.25,6.47c-52.54-4.23-83.19-31.38-92.57-83.11a284.16,284.16,0,0,1,.2-103.33c9.56-51.35,38.88-77.85,90.77-82.63a212.36,212.36,0,0,1,73.32,5.58c4.51,1.17,9,2.57,13.57,3.28,11,1.7,15.24-1.34,16-12,.59-7.94.24-16,.28-23.95.05-10.66-5.21-17.56-15.12-21-5.66-2-11.31-4-17.07-5.61a226.88,226.88,0,0,0-98.88-5.59q-100.28,16.19-132.23,112.42c-8.9,26.85-11.79,54.56-11.12,82.83-.78,32.82,3.32,65,15.44,95.85,17.65,44.91,49.07,75.67,95.36,89.78,45.78,14,91.9,13.24,137.7-.68a125.5,125.5,0,0,0,18.39-7.67,17.29,17.29,0,0,0,10.24-15.95C3031.54,634.17,3031.79,624.82,3031.24,615.54Z" transform="translate(1131.71 -136.72)"/>
  <path class="cls-1" d="M2677.21,305.66c-.93-7.7-5.27-12.79-12.75-13-16-.53-32-.44-47.91.12-6.58.23-11.08,5.07-12,11.51a121.08,121.08,0,0,0-.62,15.95q0,80.93,0,161.84h0V637.9c0,4.66-.17,9.34.11,14,.75,12.28,5,16.75,17.18,17.3,9.3.42,18.64.16,28,.13,27-.06,28.37-1.3,28.38-28q.06-160.84,0-321.69A115.89,115.89,0,0,0,2677.21,305.66Z" transform="translate(1131.71 -136.72)"/>
  <path class="cls-1" d="M314.59,689.84c-33-7.24-66.13-6.64-99.29-1.3-23.86,3.84-46.68,10.9-67.88,22.67a124.15,124.15,0,0,0-15,9.78c-3.72,2.83-6.89,6.41-5.65,11.86,1,4.3,5.14,6.07,13.42,5.45,3.32-.25,6.6-.9,9.92-1.17,23.22-1.93,46.31-5.57,69.7-4.9,10,0,20-.47,29.95.16a101.85,101.85,0,0,1,21.57,3.75c12.91,3.71,17.46,9.7,17.78,23.09a91.67,91.67,0,0,1-1.68,19.84c-2.2,11.08-4.53,22.23-8.06,32.94-7.3,22.13-15.45,44-23.19,66-1.76,5-3.52,10-4.83,15.16a7.3,7.3,0,0,0,2.31,7.27c2.86,2.64,6.09,2.35,9.24.83,9.26-4.45,16-12,22.32-19.68,36.59-44.71,56.62-96.1,59.49-153.77C346,700.88,341.36,695.72,314.59,689.84Z" transform="translate(1131.71 -136.72)"/>
  <path class="cls-1" d="M2641.52,136.79c-28.77-1.57-51.61,20.64-45.21,55.36,3.41,18.52,16.27,30.32,34.91,33.4,21.94,3.62,41-4,50.26-20.11a31,31,0,0,0,1.77-3.56C2695.62,172.75,2680.84,135.44,2641.52,136.79Z" transform="translate(1131.71 -136.72)"/>
</svg>