<?xml version="1.0" encoding="utf-8"?>
<svg xmlns="http://www.w3.org/2000/svg" xmlns:xlink="http://www.w3.org/1999/xlink" version="1.1" id="Layer_1" x="0px" y="0px" viewBox="0 0 958.3 219.1" style="enable-background:new 0 0 958.3 219.1;">
<style type="text/css">
	.st0{fill:#FFFFFF;}
</style>
<path class="st0" d="M305.7,38.8L305.7,38.8c-3.4-12.6-13.3-22.5-25.9-25.9c-23-6.3-115.1-6.3-115.1-6.3s-92.1,0-115.1,6.1&#xA;	C37.3,16,27.1,26.2,23.7,38.8c-6.1,23-6.1,70.7-6.1,70.7s0,48,6.1,70.7c3.4,12.6,13.3,22.5,25.9,25.9c23.3,6.3,115.1,6.3,115.1,6.3&#xA;	s92.1,0,115.1-6.1c12.6-3.4,22.5-13.3,25.9-25.9c6.1-23,6.1-70.7,6.1-70.7S312,61.8,305.7,38.8z M135.4,153.6V65.4l76.6,44.1&#xA;	L135.4,153.6z"/>
<g id="g7451">
	<g id="g7449">
		<path id="path7435" class="st0" d="M444.8,194.1c-5.8-3.9-9.9-9.9-12.4-18.4c-2.4-8.2-3.6-19.4-3.6-32.9v-18.7&#xA;			c0-13.8,1.5-25,4.1-33.4c2.9-8.5,7.3-14.5,13.1-18.4c6.1-3.9,13.8-5.8,23.5-5.8c9.4,0,17.2,1.9,23,5.8c5.8,3.9,9.9,10.2,12.6,18.4&#xA;			c2.7,8.2,4.1,19.4,4.1,33.4v18.7c0,13.8-1.2,24.7-3.9,33.2c-2.7,8.2-6.8,14.5-12.6,18.4s-13.8,5.8-23.7,5.8&#xA;			C458.8,199.9,450.6,198,444.8,194.1L444.8,194.1z M477.5,173.7c1.7-4.1,2.4-11.1,2.4-20.6v-40.2c0-9.2-0.7-16-2.4-20.4&#xA;			c-1.7-4.4-4.4-6.3-8.5-6.3c-3.9,0-6.8,2.2-8.2,6.3c-1.7,4.4-2.4,11.1-2.4,20.4v40.2c0,9.4,0.7,16.5,2.4,20.6&#xA;			c1.5,4.1,4.4,6.3,8.5,6.3C473.1,180,475.8,178.1,477.5,173.7z"/>
		<path id="path7437" class="st0" d="M892,143v6.5c0,8.2,0.2,14.5,0.7,18.7c0.5,4.1,1.5,7.3,3.1,9c1.5,1.9,3.9,2.9,7.3,2.9&#xA;			c4.4,0,7.3-1.7,9-5.1c1.7-3.4,2.4-9,2.7-17l25,1.5c0.2,1.2,0.2,2.7,0.2,4.6c0,11.9-3.1,20.8-9.7,26.7c-6.5,5.8-15.7,8.7-27.6,8.7&#xA;			c-14.3,0-24.2-4.6-30-13.6c-5.8-9-8.7-22.8-8.7-41.7v-22.5c0-19.4,2.9-33.4,9-42.4s16.2-13.3,30.5-13.3c9.9,0,17.7,1.9,23,5.6&#xA;			c5.3,3.6,9,9.4,11.1,17c2.2,7.8,3.1,18.4,3.1,32v22H892V143z M895.6,88.7c-1.5,1.9-2.4,4.8-2.9,9c-0.5,4.1-0.7,10.4-0.7,18.9v9.2&#xA;			h21.3v-9.2c0-8.2-0.2-14.5-0.7-18.9c-0.5-4.4-1.7-7.3-3.1-9c-1.5-1.7-3.9-2.7-6.8-2.7C899.3,85.8,897.1,86.8,895.6,88.7&#xA;			L895.6,88.7z"/>
		<path id="path7439" class="st0" d="M374,140.6L341.1,21.1h28.8l11.6,54c2.9,13.3,5.1,24.7,6.5,34.2h0.7c1-6.8,3.1-17.9,6.5-33.9&#xA;			l12.1-54.3h28.8l-33.4,119.4v57.2h-28.6v-57.2H374z"/>
		<path id="path7441" class="st0" d="M603,68.8V198h-22.8l-2.4-15.7h-0.7c-6.1,11.9-15.5,17.9-27.9,17.9c-8.5,0-14.8-2.9-18.9-8.5&#xA;			s-6.1-14.3-6.1-26.4V68.8h29.1v94.7c0,5.8,0.7,9.9,1.9,12.4c1.2,2.4,3.4,3.6,6.3,3.6c2.4,0,4.8-0.7,7.3-2.4&#xA;			c2.4-1.5,4.1-3.4,5.1-5.8V68.8H603z"/>
		<path id="path7443" class="st0" d="M752,68.8V198h-22.8l-2.4-15.7h-0.7c-6.1,11.9-15.5,17.9-27.9,17.9c-8.5,0-14.8-2.9-18.9-8.5&#xA;			s-6.1-14.3-6.1-26.4V68.8h29.1v94.7c0,5.8,0.7,9.9,1.9,12.4c1.2,2.4,3.4,3.6,6.3,3.6c2.4,0,4.8-0.7,7.3-2.4&#xA;			c2.4-1.5,4.1-3.4,5.1-5.8V68.8H752z"/>
		<path id="path7445" class="st0" d="M682,44.6h-28.8v153.1h-28.3V44.6h-28.8V21.1h86V44.6z"/>
		<path id="path7447" class="st0" d="M848.2,89.4c-1.7-8.2-4.6-14.1-8.5-17.7c-3.9-3.6-9.4-5.6-16.2-5.6c-5.3,0-10.4,1.5-15,4.6&#xA;			c-4.6,2.9-8.2,7-10.7,11.9h-0.2V14.6h-28.1v183.2h24l2.9-12.1h0.7c2.2,4.4,5.6,7.8,10.2,10.4c4.6,2.4,9.4,3.9,15,3.9&#xA;			c9.9,0,17-4.6,21.6-13.6c4.6-9,7-23.3,7-42.4v-20.4C850.6,108.8,849.9,97.4,848.2,89.4L848.2,89.4z M821.5,142&#xA;			c0,9.4-0.5,16.7-1.2,22c-0.7,5.3-2.2,9.2-3.9,11.4c-1.9,2.2-4.4,3.4-7.3,3.4c-2.4,0-4.6-0.5-6.5-1.7c-1.9-1.2-3.6-2.9-4.8-5.1&#xA;			V98.9c1-3.4,2.7-6.3,5.1-8.7c2.4-2.2,5.1-3.4,7.8-3.4c2.9,0,5.3,1.2,6.8,3.4c1.7,2.4,2.7,6.3,3.4,11.6c0.7,5.6,1,13.3,1,23.3v17&#xA;			H821.5z"/>
	</g>
</g>
</svg>